<svg id="SvgjsSvg1009" xmlns="http://www.w3.org/2000/svg" version="1.1" xmlns:xlink="http://www.w3.org/1999/xlink" xmlns:svgjs="http://svgjs.com/svgjs" width="74" height="60"><defs id="SvgjsDefs1010"></defs><path id="SvgjsPath1011" d="M244.732 1977.85C243.533 1975.76 240.689 1975.12 238.413 1976.4299999999998L232.822 1979.6399999999999C230.546 1980.9499999999998 226.616 1981.78 224.089 1981.4999999999998C224.089 1981.4999999999998 214.612 1980.4299999999998 208.01 1984.2299999999998C201.40699999999998 1988.0199999999998 197.54999999999998 1996.7499999999998 197.54999999999998 1996.7499999999998C196.521 1999.0699999999997 193.81699999999998 2002.0499999999997 191.54 2003.3499999999997L186.054 2006.5099999999998C183.77700000000002 2007.8099999999997 182.89600000000002 2010.5899999999997 184.095 2012.6799999999998L195.214 2032.06C196.414 2034.1499999999999 199.258 2034.79 201.534 2033.48L206.939 2030.3700000000001C209.215 2029.0700000000002 213.143 2028.24 215.668 2028.5300000000002C215.668 2028.5300000000002 225.239 2029.65 231.887 2025.8300000000002C238.535 2022.0100000000002 242.395 2013.18 242.395 2013.18C243.413 2010.8500000000001 246.109 2007.8700000000001 248.38500000000002 2006.5600000000002L253.89300000000003 2003.4C256.17 2002.0900000000001 257.05100000000004 1999.3100000000002 255.85200000000003 1997.22Z " fill="#ffffff" transform="matrix(1,0,0,1,-183,-1975)"></path><path id="SvgjsPath1012" d="M212.69 1998.09C218.7 1994.62 225.665 1995.4299999999998 228.248 1999.8999999999999C230.82999999999998 2004.37 228.051 2010.81 222.041 2014.28C221.362 2014.67 220.672 2015.01 219.976 2015.29C219.964 2015.32 214.844 2021.61 214.844 2021.61C214.844 2021.61 214.736 2016.4599999999998 214.72899999999998 2016.4299999999998C211.17 2016.5199999999998 208.035 2015.1499999999999 206.48399999999998 2012.4699999999998C203.90099999999998 2007.9899999999998 206.67999999999998 2001.5499999999997 212.68999999999997 1998.0899999999997ZM218.242 2005.72C218.518 2006.2 219.13 2006.3700000000001 219.608 2006.09C220.08700000000002 2005.81 220.251 2005.1999999999998 219.97400000000002 2004.72C219.698 2004.25 219.08700000000002 2004.08 218.608 2004.3600000000001C218.13 2004.63 217.966 2005.2500000000002 218.242 2005.72ZM214.742 2007.75C215.018 2008.22 215.63 2008.39 216.108 2008.11C216.586 2007.84 216.75 2007.2199999999998 216.47400000000002 2006.74C216.198 2006.27 215.586 2006.1 215.108 2006.38C214.63 2006.66 214.466 2007.2700000000002 214.742 2007.75ZM211.275 2009.7C211.55100000000002 2010.18 212.163 2010.3400000000001 212.64100000000002 2010.06C213.12000000000003 2009.79 213.28300000000002 2009.1799999999998 213.00700000000003 2008.7C212.73100000000002 2008.22 212.11900000000003 2008.06 211.64100000000002 2008.3300000000002C211.163 2008.6100000000001 210.99900000000002 2009.2200000000003 211.275 2009.7ZM221.706 2003.72C221.982 2004.2 222.594 2004.3700000000001 223.072 2004.09C223.55100000000002 2003.81 223.715 2003.1999999999998 223.43800000000002 2002.72C223.162 2002.25 222.55100000000002 2002.08 222.072 2002.3600000000001C221.594 2002.63 221.43 2003.2500000000002 221.706 2003.72Z " fill="#de5749" transform="matrix(1,0,0,1,-183,-1975)"></path></svg>