<svg id="SvgjsSvg1017" xmlns="http://www.w3.org/2000/svg" version="1.1" xmlns:xlink="http://www.w3.org/1999/xlink" xmlns:svgjs="http://svgjs.com/svgjs" width="74" height="60"><defs id="SvgjsDefs1018"></defs><path id="SvgjsPath1019" d="M918.732 1483.85C917.533 1481.76 914.689 1481.12 912.413 1482.4299999999998L906.822 1485.6399999999999C904.546 1486.9499999999998 900.616 1487.78 898.089 1487.4999999999998C898.089 1487.4999999999998 888.6120000000001 1486.4299999999998 882.0100000000001 1490.2299999999998C875.4070000000002 1494.0199999999998 871.5500000000001 1502.7499999999998 871.5500000000001 1502.7499999999998C870.5210000000001 1505.0699999999997 867.8170000000001 1508.0499999999997 865.541 1509.3499999999997L860.0540000000001 1512.5099999999998C857.777 1513.8099999999997 856.8960000000001 1516.5899999999997 858.0950000000001 1518.6799999999998L869.2150000000001 1538.06C870.4140000000001 1540.1499999999999 873.2580000000002 1540.79 875.5340000000001 1539.48L880.9390000000001 1536.3700000000001C883.215 1535.0700000000002 887.143 1534.24 889.6680000000001 1534.5300000000002C889.6680000000001 1534.5300000000002 899.2380000000002 1535.65 905.8870000000002 1531.8300000000002C912.5350000000002 1528.0100000000002 916.3950000000002 1519.18 916.3950000000002 1519.18C917.4130000000002 1516.8500000000001 920.1090000000003 1513.8700000000001 922.3850000000002 1512.5600000000002L927.8930000000003 1509.4C930.1690000000002 1508.0900000000001 931.0510000000003 1505.3100000000002 929.8520000000002 1503.22Z " fill="#ffffff" transform="matrix(1,0,0,1,-857,-1481)"></path><path id="SvgjsPath1020" d="M904.995 1514.01L903.671 1514.01C903.456 1514.78 903.147 1515.52 902.753 1516.21L903.976 1517.43C904.759 1518.21 904.759 1519.48 903.976 1520.27L903.267 1520.98C902.484 1521.76 901.215 1521.76 900.432 1520.98L899.201 1519.74C898.517 1520.13 897.7810000000001 1520.44 897.006 1520.65L897.006 1521.93C897.006 1523.04 896.108 1523.94 895.001 1523.94L893.999 1523.94C892.8910000000001 1523.94 891.994 1523.04 891.994 1521.93L891.994 1520.65C891.2180000000001 1520.43 890.4820000000001 1520.13 889.799 1519.74L888.568 1520.98C887.785 1521.76 886.515 1521.76 885.732 1520.98L885.023 1520.27C884.24 1519.48 884.24 1518.21 885.023 1517.43L886.2470000000001 1516.21C885.8530000000001 1515.52 885.5440000000001 1514.78 885.3280000000001 1514.01L884.0050000000001 1514.01C882.8980000000001 1514.01 882.0000000000001 1513.11 882.0000000000001 1512L882.0000000000001 1511C882.0000000000001 1509.89 882.8980000000001 1508.99 884.0050000000001 1508.99L885.3120000000001 1508.99C885.5200000000001 1508.22 885.8160000000001 1507.49 886.2000000000002 1506.81L885.0230000000001 1505.6299999999999C884.2400000000001 1504.85 884.2400000000001 1503.58 885.0230000000001 1502.79L885.7320000000001 1502.09C886.5150000000001 1501.3 887.7850000000001 1501.3 888.5680000000001 1502.09L889.7210000000001 1503.24C890.4260000000002 1502.83 891.1880000000001 1502.51 891.9940000000001 1502.29L891.9940000000001 1500.94C891.9940000000001 1499.8300000000002 892.8910000000002 1498.94 893.9990000000001 1498.94L895.0010000000001 1498.94C896.1080000000001 1498.94 897.0060000000001 1499.8300000000002 897.0060000000001 1500.94L897.0060000000001 1502.29C897.811 1502.51 898.5730000000001 1502.83 899.2790000000001 1503.24L900.4320000000001 1502.09C901.2150000000001 1501.3 902.4840000000002 1501.3 903.2670000000002 1502.09L903.9760000000001 1502.79C904.7590000000001 1503.58 904.7590000000001 1504.85 903.9760000000001 1505.6299999999999L902.8000000000001 1506.81C903.1830000000001 1507.49 903.48 1508.22 903.687 1508.99L904.995 1508.99C906.102 1508.99 907 1509.89 907 1511L907 1512C907 1513.11 906.102 1514.01 904.995 1514.01ZM894.5 1506.02C891.455 1506.02 888.986 1508.49 888.986 1511.53C888.986 1514.58 891.455 1517.04 894.5 1517.04C897.545 1517.04 900.014 1514.58 900.014 1511.53C900.014 1508.49 897.545 1506.02 894.5 1506.02ZM897.006 1511.47C897.006 1510.08 895.884 1508.96 894.5 1508.96C893.116 1508.96 891.994 1510.08 891.994 1511.47C891.994 1512.8500000000001 893.116 1513.97 894.5 1513.97C895.884 1513.97 897.006 1512.8500000000001 897.006 1511.47Z " fill="#de5749" transform="matrix(1,0,0,1,-857,-1481)"></path></svg>