<svg id="SvgjsSvg1025" xmlns="http://www.w3.org/2000/svg" version="1.1" xmlns:xlink="http://www.w3.org/1999/xlink" xmlns:svgjs="http://svgjs.com/svgjs" width="74" height="60"><defs id="SvgjsDefs1026"></defs><path id="SvgjsPath1027" d="M918.732 1728.85C917.533 1726.76 914.689 1726.12 912.413 1727.4299999999998L906.822 1730.6399999999999C904.546 1731.9499999999998 900.616 1732.78 898.089 1732.4999999999998C898.089 1732.4999999999998 888.6120000000001 1731.4299999999998 882.0100000000001 1735.2299999999998C875.4070000000002 1739.0199999999998 871.5500000000001 1747.7499999999998 871.5500000000001 1747.7499999999998C870.5210000000001 1750.0699999999997 867.8170000000001 1753.0399999999997 865.541 1754.3499999999997L860.0540000000001 1757.5099999999998C857.777 1758.8099999999997 856.8960000000001 1761.5899999999997 858.0950000000001 1763.6799999999998L869.2150000000001 1783.06C870.4140000000001 1785.1499999999999 873.2580000000002 1785.79 875.5340000000001 1784.48L880.9390000000001 1781.3700000000001C883.215 1780.0700000000002 887.143 1779.24 889.6680000000001 1779.5300000000002C889.6680000000001 1779.5300000000002 899.2380000000002 1780.65 905.8870000000002 1776.8300000000002C912.5350000000002 1773.0100000000002 916.3950000000002 1764.18 916.3950000000002 1764.18C917.4130000000002 1761.8500000000001 920.1090000000003 1758.8700000000001 922.3850000000002 1757.5600000000002L927.8930000000003 1754.4C930.1690000000002 1753.0900000000001 931.0510000000003 1750.3100000000002 929.8520000000002 1748.22Z " fill="#ffffff" transform="matrix(1,0,0,1,-857,-1726)"></path><path id="SvgjsPath1028" d="M911 1758L902.147 1760.77L891.245 1751.21L899.693 1761.51L890.226 1764.53L885.352 1745.18ZM899.992 1763.03L899.992 1768.35L896.876 1763.9499999999998Z " fill="#de5749" transform="matrix(1,0,0,1,-857,-1726)"></path></svg>