<svg id="SvgjsSvg1013" xmlns="http://www.w3.org/2000/svg" version="1.1" xmlns:xlink="http://www.w3.org/1999/xlink" xmlns:svgjs="http://svgjs.com/svgjs" width="74" height="60"><defs id="SvgjsDefs1014"></defs><path id="SvgjsPath1015" d="M244.732 1728.85C243.533 1726.76 240.689 1726.12 238.413 1727.4299999999998L232.822 1730.6399999999999C230.546 1731.9499999999998 226.616 1732.78 224.089 1732.4999999999998C224.089 1732.4999999999998 214.612 1731.4299999999998 208.01 1735.2299999999998C201.40699999999998 1739.0199999999998 197.54999999999998 1747.7499999999998 197.54999999999998 1747.7499999999998C196.521 1750.0699999999997 193.81699999999998 1753.0399999999997 191.54 1754.3499999999997L186.054 1757.5099999999998C183.77700000000002 1758.8099999999997 182.89600000000002 1761.5899999999997 184.095 1763.6799999999998L195.214 1783.06C196.414 1785.1499999999999 199.258 1785.79 201.534 1784.48L206.939 1781.3700000000001C209.215 1780.0700000000002 213.143 1779.24 215.668 1779.5300000000002C215.668 1779.5300000000002 225.239 1780.65 231.887 1776.8300000000002C238.535 1773.0100000000002 242.395 1764.18 242.395 1764.18C243.413 1761.8500000000001 246.109 1758.8700000000001 248.38500000000002 1757.5600000000002L253.89300000000003 1754.4C256.17 1753.0900000000001 257.05100000000004 1750.3100000000002 255.85200000000003 1748.22Z " fill="#ffffff" transform="matrix(1,0,0,1,-183,-1726)"></path><path id="SvgjsPath1016" d="M212.5 1745.73C218.239 1742.42 225.578 1744.38 228.892 1750.1200000000001C232.206 1755.8600000000001 230.239 1763.2 224.5 1766.5200000000002C218.76 1769.8300000000002 211.421 1767.8600000000001 208.107 1762.1200000000001C204.794 1756.38 206.76 1749.0500000000002 212.5 1745.73ZM222.048 1762.52C225.603 1760.47 226.657 1756.76 224.85 1752.6399999999999L223.98399999999998 1753.1399999999999C225.033 1756.53 224.057 1759.09 221.057 1760.82C218.05599999999998 1762.55 215.351 1762.11 212.94199999999998 1759.51L212.10299999999998 1760C214.766 1763.62 218.492 1764.57 222.04799999999997 1762.52ZM211.584 1755.3C212.136 1756.25 213.166 1756.69 213.883 1756.28C214.601 1755.86 214.734 1754.75 214.18200000000002 1753.8C213.63000000000002 1752.84 212.60100000000003 1752.3999999999999 211.883 1752.81C211.166 1753.23 211.032 1754.34 211.584 1755.3ZM218.571 1751.25C219.123 1752.2 220.153 1752.64 220.87 1752.23C221.58700000000002 1751.81 221.721 1750.7 221.169 1749.75C220.61700000000002 1748.79 219.58700000000002 1748.35 218.87 1748.76C218.153 1749.18 218.019 1750.29 218.571 1751.25Z " fill="#de5749" transform="matrix(1,0,0,1,-183,-1726)"></path></svg>