<svg id="SvgjsSvg1021" xmlns="http://www.w3.org/2000/svg" version="1.1" xmlns:xlink="http://www.w3.org/1999/xlink" xmlns:svgjs="http://svgjs.com/svgjs" width="74" height="60"><defs id="SvgjsDefs1022"></defs><path id="SvgjsPath1023" d="M918.732 1977.85C917.533 1975.76 914.689 1975.12 912.413 1976.4299999999998L906.822 1979.6399999999999C904.546 1980.9499999999998 900.616 1981.78 898.089 1981.4999999999998C898.089 1981.4999999999998 888.6120000000001 1980.4299999999998 882.0100000000001 1984.2299999999998C875.4070000000002 1988.0199999999998 871.5500000000001 1996.7499999999998 871.5500000000001 1996.7499999999998C870.5210000000001 1999.0699999999997 867.8170000000001 2002.0499999999997 865.541 2003.3499999999997L860.0540000000001 2006.5099999999998C857.777 2007.8099999999997 856.8960000000001 2010.5899999999997 858.0950000000001 2012.6799999999998L869.2150000000001 2032.06C870.4140000000001 2034.1499999999999 873.2580000000002 2034.79 875.5340000000001 2033.48L880.9390000000001 2030.3700000000001C883.215 2029.0700000000002 887.143 2028.24 889.6680000000001 2028.5300000000002C889.6680000000001 2028.5300000000002 899.2380000000002 2029.65 905.8870000000002 2025.8300000000002C912.5350000000002 2022.0100000000002 916.3950000000002 2013.18 916.3950000000002 2013.18C917.4130000000002 2010.8500000000001 920.1090000000003 2007.8700000000001 922.3850000000002 2006.5600000000002L927.8930000000003 2003.4C930.1690000000002 2002.0900000000001 931.0510000000003 1999.3100000000002 929.8520000000002 1997.22Z " fill="#ffffff" transform="matrix(1,0,0,1,-857,-1975)"></path><path id="SvgjsPath1024" d="M887.517 1996.46C896.177 1991.46 908.484 1997.82 908.484 1997.82C908.484 1997.82 907.7810000000001 2011.6899999999998 899.1750000000001 2016.6599999999999C889.974 2021.9699999999998 878.4820000000001 2015.1399999999999 878.4820000000001 2015.1399999999999C878.4820000000001 2015.1399999999999 878.369 2001.7499999999998 887.517 1996.4599999999998ZM888.896 2009.14C890.343 2011.65 893.5469999999999 2012.51 896.053 2011.0600000000002C898.558 2009.6200000000001 899.417 2006.41 897.97 2003.91C896.523 2001.4 893.32 2000.5400000000002 890.8140000000001 2001.99C888.3080000000001 2003.43 887.45 2006.64 888.8960000000001 2009.14ZM892.152 2004.24C893.399 2003.52 894.993 2003.95 895.7130000000001 2005.2C896.4330000000001 2006.44 896.0060000000001 2008.04 894.7590000000001 2008.76C893.5120000000002 2009.48 891.9170000000001 2009.05 891.1970000000001 2007.8C890.4770000000001 2006.56 890.9050000000001 2004.96 892.1520000000002 2004.24Z " fill="#de5749" transform="matrix(1,0,0,1,-857,-1975)"></path></svg>