<svg id="SvgjsSvg1000" xmlns="http://www.w3.org/2000/svg" version="1.1" xmlns:xlink="http://www.w3.org/1999/xlink" xmlns:svgjs="http://svgjs.com/svgjs" width="74" height="60"><defs id="SvgjsDefs1001"></defs><path id="SvgjsPath1007" d="M244.732 1483.85C243.533 1481.76 240.689 1481.12 238.413 1482.4299999999998L232.822 1485.6399999999999C230.546 1486.9499999999998 226.616 1487.78 224.089 1487.4999999999998C224.089 1487.4999999999998 214.612 1486.4299999999998 208.01 1490.2299999999998C201.40699999999998 1494.0199999999998 197.54999999999998 1502.7499999999998 197.54999999999998 1502.7499999999998C196.521 1505.0699999999997 193.81699999999998 1508.0499999999997 191.54 1509.3499999999997L186.054 1512.5099999999998C183.77700000000002 1513.8099999999997 182.89600000000002 1516.5899999999997 184.095 1518.6799999999998L195.214 1538.06C196.414 1540.1499999999999 199.258 1540.79 201.534 1539.48L206.939 1536.3700000000001C209.215 1535.0700000000002 213.143 1534.24 215.668 1534.5300000000002C215.668 1534.5300000000002 225.239 1535.65 231.887 1531.8300000000002C238.535 1528.0100000000002 242.395 1519.18 242.395 1519.18C243.413 1516.8500000000001 246.109 1513.8700000000001 248.38500000000002 1512.5600000000002L253.89300000000003 1509.4C256.17 1508.0900000000001 257.05100000000004 1505.3100000000002 255.85200000000003 1503.22Z " fill="#ffffff" transform="matrix(1,0,0,1,-183,-1481)"></path><path id="SvgjsPath1008" d="M211.225 1508.49C211.225 1508.49 208.44 1507.8 206.822 1510.61C205.424 1513.2099999999998 207.226 1515.4399999999998 207.226 1515.4399999999998C207.226 1515.4399999999998 202.939 1519.1699999999998 205.781 1524.09C208.728 1528.9499999999998 213.893 1526.03 213.893 1526.03L221.976 1521.36L219.007 1516.2199999999998L216.463 1517.6899999999998L218.083 1510.62L225.016 1512.75L222.47199999999998 1514.22L225.43999999999997 1519.3600000000001L232.78599999999997 1515.1200000000001C232.78599999999997 1515.1200000000001 237.56899999999996 1512.3700000000001 235.53999999999996 1507.3000000000002C232.90699999999995 1502.0000000000002 227.38499999999996 1503.8500000000001 227.38499999999996 1503.8500000000001C227.38499999999996 1503.8500000000001 223.57599999999996 1495.95 216.13999999999996 1499.0900000000001C209.84299999999996 1501.92 211.22499999999997 1508.4900000000002 211.22499999999997 1508.4900000000002Z " fill="#de5749" transform="matrix(1,0,0,1,-183,-1481)"></path></svg>